<svg width="16" height="16" viewBox="0 0 16 16" fill="none" xmlns="http://www.w3.org/2000/svg">
<path d="M7.99999 1.33333C4.32399 1.33333 1.33333 4.324 1.33333 8C1.33333 11.676 4.32399 14.6667 7.99999 14.6667C11.676 14.6667 14.6667 11.676 14.6667 8C14.6667 4.324 11.676 1.33333 7.99999 1.33333ZM7.99999 13.3333C5.05933 13.3333 2.66666 10.9407 2.66666 8C2.66666 5.05933 5.05933 2.66667 7.99999 2.66667C10.9407 2.66667 13.3333 5.05933 13.3333 8C13.3333 10.9407 10.9407 13.3333 7.99999 13.3333Z" fill="black"/>
<path d="M8.66666 4.66667H7.33333V8.276L9.52866 10.4713L10.4713 9.52867L8.66666 7.724V4.66667Z" fill="black"/>
</svg>
