<svg width="16" height="16" viewBox="0 0 16 16" fill="none" xmlns="http://www.w3.org/2000/svg">
<g clip-path="url(#clip0_39_67)">
<path d="M13.6326 13.6329H11.2619V9.92023C11.2619 9.03492 11.2461 7.89523 10.0289 7.89523C8.79419 7.89523 8.60525 8.85985 8.60525 9.85579V13.6327H6.23463V5.99792H8.51044V7.04129H8.54232C8.77007 6.65186 9.09919 6.33148 9.49462 6.1143C9.89005 5.89712 10.337 5.79125 10.7878 5.80798C13.1906 5.80798 13.6336 7.38848 13.6336 9.4446L13.6326 13.6329V13.6329ZM3.55963 4.95435C2.79982 4.95448 2.18375 4.3386 2.18363 3.57879C2.1835 2.81898 2.79932 2.20292 3.55913 2.20279C4.31894 2.2026 4.935 2.81848 4.93513 3.57829C4.93519 3.94317 4.79032 4.29313 4.53236 4.55119C4.27441 4.80925 3.92451 4.95427 3.55963 4.95435M4.745 13.633H2.37182V5.99792H4.74494V13.6329L4.745 13.633ZM14.8145 0.00110346H1.18057C0.53619 -0.00614654 0.00775293 0.510041 -0.00012207 1.15442V14.8452C0.00750293 15.4899 0.535878 16.0066 1.1805 15.9999H14.8145C15.4605 16.0079 15.9909 15.4912 15.9999 14.8452V1.15335C15.9907 0.507728 15.4602 -0.00839654 14.8145 4.09581e-05" fill="#0A66C2"/>
</g>
<defs>
<clipPath id="clip0_39_67">
<rect width="16" height="16" fill="white"/>
</clipPath>
</defs>
</svg>
