<?xml version="1.0" encoding="UTF-8" standalone="no"?>
<!-- Created with Inkscape (http://www.inkscape.org/) -->

<svg
   xmlns:dc="http://purl.org/dc/elements/1.1/"
   xmlns:cc="http://creativecommons.org/ns#"
   xmlns:rdf="http://www.w3.org/1999/02/22-rdf-syntax-ns#"
   xmlns:svg="http://www.w3.org/2000/svg"
   xmlns="http://www.w3.org/2000/svg"
   xmlns:xlink="http://www.w3.org/1999/xlink"
   xmlns:sodipodi="http://sodipodi.sourceforge.net/DTD/sodipodi-0.dtd"
   xmlns:inkscape="http://www.inkscape.org/namespaces/inkscape"
   width="112.29189"
   height="150"
   id="svg9544"
   version="1.1"
   inkscape:version="0.48.4 r9939"
   sodipodi:docname="New document 3">
  <defs
     id="defs9546">
    <linearGradient
       x1="0"
       y1="0"
       x2="1"
       y2="0"
       gradientUnits="userSpaceOnUse"
       gradientTransform="matrix(29.435,29.435,29.435,-29.435,63.225,763.923)"
       spreadMethod="pad"
       id="linearGradient212">
      <stop
         style="stop-opacity:1;stop-color:#24488d"
         offset="0"
         id="stop214" />
      <stop
         style="stop-opacity:1;stop-color:#4390d5"
         offset="0.75"
         id="stop216" />
      <stop
         style="stop-opacity:1;stop-color:#4390d5"
         offset="0.75"
         id="stop218" />
      <stop
         style="stop-opacity:1;stop-color:#4390d5"
         offset="1"
         id="stop220" />
    </linearGradient>
    <linearGradient
       inkscape:collect="always"
       xlink:href="#linearGradient212"
       id="linearGradient9671"
       gradientUnits="userSpaceOnUse"
       gradientTransform="matrix(29.435,29.435,29.435,-29.435,63.225,763.923)"
       spreadMethod="pad"
       x1="0"
       y1="0"
       x2="1"
       y2="0" />
    <linearGradient
       inkscape:collect="always"
       xlink:href="#linearGradient212"
       id="linearGradient9707"
       gradientUnits="userSpaceOnUse"
       gradientTransform="matrix(29.435,29.435,29.435,-29.435,63.225,763.923)"
       spreadMethod="pad"
       x1="0"
       y1="0"
       x2="1"
       y2="0" />
    <linearGradient
       inkscape:collect="always"
       xlink:href="#linearGradient212"
       id="linearGradient9727"
       gradientUnits="userSpaceOnUse"
       gradientTransform="matrix(29.435,29.435,29.435,-29.435,63.225,763.923)"
       spreadMethod="pad"
       x1="0"
       y1="0"
       x2="1"
       y2="0" />
    <linearGradient
       inkscape:collect="always"
       xlink:href="#linearGradient212"
       id="linearGradient9731"
       gradientUnits="userSpaceOnUse"
       gradientTransform="matrix(29.435,29.435,29.435,-29.435,63.225,763.923)"
       spreadMethod="pad"
       x1="0"
       y1="0"
       x2="1"
       y2="0" />
    <linearGradient
       inkscape:collect="always"
       xlink:href="#linearGradient212"
       id="linearGradient9734"
       gradientUnits="userSpaceOnUse"
       gradientTransform="matrix(103.83937,-103.83937,103.83937,103.83937,-284.23956,430.09511)"
       spreadMethod="pad"
       x1="0"
       y1="0"
       x2="1"
       y2="0" />
  </defs>
  <sodipodi:namedview
     id="base"
     pagecolor="#ffffff"
     bordercolor="#666666"
     borderopacity="1.0"
     inkscape:pageopacity="0.0"
     inkscape:pageshadow="2"
     inkscape:zoom="1"
     inkscape:cx="663.4658"
     inkscape:cy="80.860705"
     inkscape:document-units="px"
     inkscape:current-layer="layer1"
     showgrid="false"
     fit-margin-top="0"
     fit-margin-left="0"
     fit-margin-right="0"
     fit-margin-bottom="0"
     inkscape:window-width="1920"
     inkscape:window-height="1003"
     inkscape:window-x="-9"
     inkscape:window-y="-9"
     inkscape:window-maximized="1" />
  <metadata
     id="metadata9549">
    <rdf:RDF>
      <cc:Work
         rdf:about="">
        <dc:format>image/svg+xml</dc:format>
        <dc:type
           rdf:resource="http://purl.org/dc/dcmitype/StillImage" />
        <dc:title></dc:title>
      </cc:Work>
    </rdf:RDF>
  </metadata>
  <g
     inkscape:label="Layer 1"
     inkscape:groupmode="layer"
     id="layer1"
     transform="translate(288.4658,-303.22289)">
    <g
       id="g9757">
      <g
         id="g9736">
        <path
           inkscape:connector-curvature="0"
           id="path144"
           style="fill:#565354;fill-opacity:1;fill-rule:nonzero;stroke:none"
           d="m -280.97639,309.08248 c 0.65616,0.14111 1.21355,0.35278 1.6651,0.62441 0.45508,0.26811 0.80785,0.56797 1.06538,0.90311 0.25753,0.33866 0.44097,0.69496 0.5468,1.07243 0.11289,0.381 0.16228,0.77964 0.16228,1.19591 0,1.22766 -0.46214,2.22954 -1.38994,3.00212 -0.92779,0.76552 -2.26481,1.15357 -4.02869,1.15357 -0.90663,0 -1.7039,-0.1023 -2.40593,-0.30691 -0.70202,-0.19756 -1.28057,-0.46567 -1.73918,-0.80433 -0.46213,-0.33161 -0.8008,-0.69144 -1.02657,-1.07949 -0.22578,-0.38805 -0.33867,-0.76905 -0.33867,-1.14652 0,-0.36689 0.11642,-0.65969 0.35983,-0.89252 0.23284,-0.23636 0.53269,-0.35278 0.90311,-0.35278 0.30691,0 0.55033,0.0741 0.74083,0.21872 0.19049,0.14817 0.40569,0.381 0.65263,0.70203 0.1658,0.2293 0.32103,0.4198 0.46566,0.57149 0.13406,0.1517 0.31397,0.29986 0.52917,0.43392 0.21519,0.13052 0.47271,0.24341 0.77963,0.32455 0.30339,0.0882 0.66674,0.13053 1.07949,0.13053 0.74436,0 1.33349,-0.16934 1.7674,-0.51153 0.43745,-0.34219 0.65264,-0.75494 0.65264,-1.22766 0,-0.30691 -0.0953,-0.57855 -0.28575,-0.82549 -0.18697,-0.23636 -0.52211,-0.42686 -0.99835,-0.5468 l -3.39017,-0.86077 c -0.64558,-0.17286 -1.18885,-0.381 -1.61924,-0.64205 -0.43039,-0.26106 -0.76552,-0.54681 -0.99483,-0.8643 -0.23636,-0.3175 -0.3951,-0.64558 -0.47977,-0.98425 -0.0847,-0.34219 -0.127,-0.7126 -0.127,-1.11829 0,-0.70555 0.15169,-1.32291 0.45155,-1.83091 0.29281,-0.51505 0.69497,-0.93838 1.19591,-1.2594 0.50447,-0.32103 1.06185,-0.55739 1.68627,-0.71261 0.61735,-0.15169 1.26293,-0.22578 1.92615,-0.22578 0.57149,0 1.16063,0.0741 1.77446,0.22578 0.6103,0.15522 1.17121,0.37394 1.67921,0.64911 0.50094,0.28574 0.90663,0.61383 1.20649,0.9913 0.29986,0.38099 0.4445,0.78316 0.4445,1.20649 0,0.36688 -0.13406,0.65616 -0.40217,0.87488 -0.26811,0.21519 -0.58913,0.3175 -0.9666,0.3175 -0.25753,0 -0.46919,-0.0529 -0.635,-0.17639 -0.16227,-0.11289 -0.3563,-0.29633 -0.57502,-0.55386 -0.3563,-0.39511 -0.71966,-0.69497 -1.09008,-0.91016 -0.37394,-0.21519 -0.92074,-0.32455 -1.64393,-0.32455 -0.68085,0 -1.21355,0.15169 -1.59101,0.43744 -0.37747,0.28222 -0.56797,0.66322 -0.56797,1.12888 0,0.39864 0.18697,0.6985 0.55033,0.9031 0.37041,0.19756 0.86782,0.37747 1.50282,0.51858 l 2.50823,0.5715" />
        <path
           inkscape:connector-curvature="0"
           id="path148"
           style="fill:#565354;fill-opacity:1;fill-rule:nonzero;stroke:none"
           d="m -275.33198,304.79627 c 0,-0.45155 0.14111,-0.81491 0.41275,-1.08655 0.27516,-0.27869 0.63852,-0.41274 1.0936,-0.41274 0.45861,0 0.82902,0.13405 1.09713,0.41274 0.26458,0.27164 0.40569,0.635 0.40569,1.08655 l 0,10.65734 c 0,0.45861 -0.14111,0.81844 -0.40569,1.09713 -0.26811,0.27164 -0.63852,0.40922 -1.09713,0.40922 -0.45508,0 -0.81844,-0.13758 -1.0936,-0.40922 -0.27164,-0.27869 -0.41275,-0.63852 -0.41275,-1.09713 l 0,-10.65734" />
        <path
           inkscape:connector-curvature="0"
           id="path152"
           style="fill:#565354;fill-opacity:1;fill-rule:nonzero;stroke:none"
           d="m -269.59586,305.05026 c 0,-0.61736 0.15169,-1.07244 0.45861,-1.34055 0.30691,-0.27869 0.77963,-0.41274 1.42521,-0.41274 0.68791,0 1.18532,0.25752 1.50282,0.77963 l 5.25635,8.48072 0.0388,0 0,-7.8175 c 0,-0.96308 0.47977,-1.44285 1.44285,-1.44285 0.97013,0 1.44638,0.47977 1.44638,1.44285 l 0,10.35042 c 0,0.6103 -0.13759,1.07597 -0.41628,1.38994 -0.28222,0.32455 -0.73377,0.47977 -1.36171,0.47977 -0.45508,0 -0.8008,-0.0529 -1.01952,-0.16933 -0.22225,-0.10584 -0.42686,-0.3175 -0.62089,-0.63853 l -5.22107,-8.24435 -0.0388,0 0,7.6023 c 0,0.96661 -0.47978,1.44991 -1.44991,1.44991 -0.95955,0 -1.44285,-0.4833 -1.44285,-1.44991 l 0,-10.45978" />
        <path
           inkscape:connector-curvature="0"
           id="path156"
           style="fill:#565354;fill-opacity:1;fill-rule:nonzero;stroke:none"
           d="m -243.05303,315.95454 c 0,0.28222 -0.1023,0.51858 -0.29633,0.71613 -0.19403,0.19403 -0.44097,0.29281 -0.73377,0.29281 -0.41275,0 -0.70555,-0.127 -0.87489,-0.38453 -0.17286,-0.25752 -0.30691,-0.69849 -0.40569,-1.31938 -0.45155,0.5715 -0.9913,1.00894 -1.62982,1.31938 -0.63147,0.30339 -1.40052,0.45861 -2.29304,0.45861 -1.12182,0 -2.09548,-0.17992 -2.92098,-0.53975 -0.82549,-0.36335 -1.48871,-0.86077 -2.00376,-1.49224 -0.51505,-0.63852 -0.89605,-1.36876 -1.13593,-2.19426 -0.24342,-0.82549 -0.36689,-1.71801 -0.36689,-2.68462 0,-1.0936 0.16228,-2.07784 0.50094,-2.93861 0.32103,-0.86077 0.79022,-1.58396 1.39699,-2.16957 0.59972,-0.58561 1.32643,-1.03716 2.16957,-1.33702 0.84313,-0.30338 1.77446,-0.45508 2.80456,-0.45508 0.79022,0 1.50988,0.0988 2.1484,0.30692 0.64558,0.20813 1.18885,0.47272 1.61924,0.80785 0.4445,0.32808 0.77258,0.67733 1.00541,1.04422 0.22225,0.36335 0.33513,0.69849 0.33513,1.01246 0,0.47272 -0.13758,0.81138 -0.41274,1.00894 -0.27517,0.20461 -0.60325,0.29986 -0.99836,0.29986 -0.27869,0 -0.49741,-0.06 -0.65969,-0.18345 -0.15875,-0.13758 -0.33513,-0.32455 -0.52916,-0.57855 -0.14464,-0.21166 -0.27869,-0.38452 -0.40569,-0.51858 -0.12347,-0.13405 -0.27869,-0.26105 -0.47272,-0.38452 -0.19755,-0.11995 -0.4445,-0.21519 -0.74083,-0.29281 -0.30338,-0.0705 -0.65263,-0.10583 -1.05479,-0.10583 -1.11125,0 -2.01082,0.38453 -2.68815,1.15005 -0.6738,0.76905 -1.01599,1.95085 -1.01599,3.53833 0,1.33349 0.32808,2.39535 0.97366,3.19615 0.65263,0.8008 1.56632,1.1959 2.76928,1.1959 0.80433,0 1.50988,-0.24694 2.11312,-0.75141 0.60325,-0.49388 0.94544,-1.14652 1.01952,-1.93673 l -1.96495,0 c -0.381,0 -0.6985,-0.0847 -0.95955,-0.26458 -0.25753,-0.17992 -0.39864,-0.47978 -0.39864,-0.89252 0,-0.76905 0.39511,-1.15711 1.17827,-1.15711 l 3.69708,0 c 0.43039,0 0.74083,0.10936 0.93486,0.31397 0.19403,0.21167 0.29633,0.52564 0.29633,0.95602 l 0,4.96355" />
        <path
           inkscape:connector-curvature="0"
           id="path160"
           style="fill:#565354;fill-opacity:1;fill-rule:nonzero;stroke:none"
           d="m -235.59889,306.55661 -0.0353,0 -1.77798,5.29516 3.51364,0 -1.70038,-5.29516 z m -1.81326,-2.34243 c 0.11994,-0.33161 0.29633,-0.57149 0.53974,-0.70908 0.23989,-0.13405 0.54328,-0.20813 0.92427,-0.20813 l 0.71261,0 c 0.39511,0 0.72319,0.0741 0.99482,0.2293 0.26459,0.14817 0.47272,0.44097 0.62089,0.86783 l 3.62653,10.0929 c 0.0705,0.21166 0.13758,0.4198 0.20108,0.63146 0.06,0.2152 0.0882,0.39511 0.0882,0.52564 0,0.36336 -0.13405,0.67733 -0.41274,0.93485 -0.26811,0.25753 -0.60325,0.38453 -0.99483,0.38453 -0.69497,0 -1.14652,-0.27517 -1.35466,-0.82902 l -0.76905,-2.19427 -4.84007,0 -0.78316,2.19427 c -0.18697,0.55385 -0.635,0.82902 -1.33702,0.82902 -0.41628,0 -0.75141,-0.11995 -1.00894,-0.35631 -0.26105,-0.23988 -0.38805,-0.56091 -0.38805,-0.96307 0,-0.13053 0.0318,-0.31044 0.0953,-0.52564 0.06,-0.21166 0.13053,-0.4198 0.20108,-0.63146 l 3.88406,-10.27282" />
        <path
           inkscape:connector-curvature="0"
           id="path164"
           style="fill:#565354;fill-opacity:1;fill-rule:nonzero;stroke:none"
           d="m -225.13911,309.57987 2.80103,0 c 0.61031,0 1.1183,-0.17286 1.51341,-0.51505 0.39511,-0.34219 0.59266,-0.79727 0.59266,-1.36171 0,-0.62794 -0.20813,-1.10066 -0.63147,-1.40405 -0.4198,-0.30691 -1.01599,-0.46213 -1.78504,-0.46213 l -2.49059,0 0,3.74294 z m -3.00564,-4.28975 c 0,-0.63499 0.14816,-1.08654 0.44802,-1.35112 0.30339,-0.27517 0.73377,-0.4057 1.31232,-0.4057 l 4.59666,0 c 0.64911,0 1.24883,0.0811 1.79563,0.25047 0.5468,0.16228 1.03363,0.41275 1.44991,0.75847 0.41274,0.34219 0.7373,0.77611 0.97365,1.3088 0.22225,0.52916 0.3422,1.15004 0.3422,1.85207 0,1.23471 -0.40922,2.24717 -1.22061,3.01975 -0.80785,0.77258 -1.92968,1.1571 -3.35841,1.1571 l -3.33373,0 0,3.57714 c 0,0.45508 -0.13405,0.81491 -0.40216,1.09361 -0.26811,0.27163 -0.635,0.40922 -1.10066,0.40922 -0.45508,0 -0.81491,-0.13759 -1.08655,-0.40922 -0.27869,-0.2787 -0.41627,-0.63853 -0.41627,-1.09361 l 0,-10.16698" />
        <path
           inkscape:connector-curvature="0"
           id="path168"
           style="fill:#565354;fill-opacity:1;fill-rule:nonzero;stroke:none"
           d="m -212.65087,311.80238 c 0.12347,0.55386 0.32808,1.04774 0.60677,1.46402 0.28222,0.42685 0.65969,0.75494 1.13594,0.9913 0.47272,0.23988 1.0548,0.35983 1.73918,0.35983 0.65616,0 1.22413,-0.11995 1.69685,-0.35983 0.46919,-0.23636 0.85372,-0.56797 1.14652,-1.00189 0.28927,-0.42333 0.50094,-0.91721 0.62441,-1.47107 0.13053,-0.55386 0.19755,-1.16416 0.19755,-1.82385 0,-1.30526 -0.31044,-2.35301 -0.93132,-3.14322 -0.62441,-0.78316 -1.5381,-1.17474 -2.73401,-1.17474 -1.19943,0 -2.10254,0.39158 -2.72342,1.17474 -0.62794,0.79021 -0.94191,1.83796 -0.94191,3.14322 0,0.6738 0.0635,1.28411 0.18344,1.84149 z m -2.74459,-4.53316 c 0.2928,-0.81844 0.72319,-1.53105 1.29116,-2.14487 0.56796,-0.60678 1.26293,-1.0795 2.09548,-1.4111 0.83255,-0.32809 1.78152,-0.49036 2.83984,-0.49036 1.06185,0 2.01082,0.16227 2.84337,0.49036 0.82549,0.3316 1.52752,0.80432 2.09548,1.4111 0.56797,0.61382 0.99836,1.32643 1.29116,2.14487 0.29633,0.81491 0.43744,1.71449 0.43744,2.69167 0,0.95602 -0.13758,1.84855 -0.41275,2.70932 -0.2681,0.84313 -0.69496,1.59101 -1.25235,2.2507 -0.56444,0.65264 -1.26293,1.16769 -2.10607,1.54163 -0.84666,0.381 -1.80973,0.57502 -2.89628,0.57502 -1.14652,0 -2.14487,-0.17991 -2.99153,-0.53621 -0.85372,-0.35631 -1.54869,-0.84667 -2.09549,-1.48519 -0.53622,-0.63147 -0.93838,-1.37582 -1.19238,-2.23307 -0.26105,-0.85371 -0.38805,-1.79209 -0.38805,-2.8222 0,-0.97718 0.14817,-1.87676 0.44097,-2.69167" />
        <path
           inkscape:connector-curvature="0"
           id="path172"
           style="fill:#565354;fill-opacity:1;fill-rule:nonzero;stroke:none"
           d="m -197.29809,309.39293 3.00564,0 c 0.31397,0 0.60678,-0.0212 0.86783,-0.0741 0.26458,-0.0494 0.50447,-0.13406 0.71613,-0.26458 0.2152,-0.127 0.381,-0.30692 0.50095,-0.55033 0.12347,-0.23989 0.18697,-0.53269 0.18697,-0.889 0,-0.66674 -0.18697,-1.13593 -0.55386,-1.3864 -0.36689,-0.26106 -0.90663,-0.39158 -1.62982,-0.39158 l -3.09384,0 0,3.55597 z m -3.00564,-4.10278 c 0,-0.63499 0.15169,-1.09007 0.45508,-1.35112 0.29633,-0.27517 0.73024,-0.40922 1.30526,-0.40922 l 4.99883,0 c 0.85724,0 1.58396,0.10583 2.17309,0.32102 0.59266,0.21872 1.0548,0.49742 1.40052,0.84666 0.34219,0.34219 0.58561,0.73025 0.73377,1.16063 0.1517,0.42333 0.22225,0.87136 0.22225,1.33702 0,0.74788 -0.20814,1.42168 -0.61736,2.02493 -0.40921,0.60677 -0.95602,0.98424 -1.65451,1.14299 l 0,0.0388 c 0.70202,0.0988 1.18532,0.37394 1.44285,0.83255 0.24341,0.4586 0.37041,1.07596 0.37041,1.84148 0,0.41275 0.0212,0.76905 0.0706,1.05127 0.0494,0.28575 0.11994,0.58561 0.20108,0.889 0.0882,0.34219 0.13053,0.59971 0.13053,0.77257 0,0.32808 -0.14464,0.6103 -0.42686,0.82903 -0.2928,0.22224 -0.62089,0.34219 -0.98424,0.34219 -0.37747,0 -0.69144,-0.0776 -0.93486,-0.23989 -0.24341,-0.15875 -0.43038,-0.35278 -0.55033,-0.58561 -0.11994,-0.2293 -0.20108,-0.4586 -0.23988,-0.68085 -0.0353,-0.2152 -0.0565,-0.42686 -0.0565,-0.62089 0,-1.19238 -0.13405,-2.02845 -0.42686,-2.51528 -0.28574,-0.49036 -0.82902,-0.72319 -1.63687,-0.72319 l -2.97037,0 0,3.85936 c 0,0.4586 -0.13405,0.81844 -0.39864,1.0936 -0.27516,0.27516 -0.63852,0.41275 -1.10418,0.41275 -0.45155,0 -0.81491,-0.13759 -1.08655,-0.41275 -0.27516,-0.27516 -0.41627,-0.635 -0.41627,-1.0936 l 0,-10.16346" />
        <path
           inkscape:connector-curvature="0"
           id="path176"
           style="fill:#565354;fill-opacity:1;fill-rule:nonzero;stroke:none"
           d="m -186.65486,305.29012 c 0,-0.635 0.14817,-1.09008 0.4445,-1.35113 0.30338,-0.27516 0.7373,-0.40922 1.31232,-0.40922 l 7.05198,0 c 0.49035,0 0.86429,0.0882 1.12888,0.26811 0.26458,0.17639 0.39158,0.49389 0.39158,0.94191 0,0.44803 -0.127,0.75494 -0.39158,0.93485 -0.26459,0.18345 -0.63853,0.27164 -1.12888,0.27164 l -5.80316,0 0,2.86101 5.09055,0 c 0.44097,0 0.78316,0.0811 1.0301,0.24694 0.26106,0.16581 0.37747,0.46919 0.37747,0.90663 0,0.42333 -0.11641,0.72672 -0.37747,0.89958 -0.24694,0.16933 -0.58913,0.25753 -1.0301,0.25753 l -5.09055,0 0,3.18556 5.95132,0 c 0.48683,0 0.86077,0.0882 1.12535,0.2681 0.26459,0.17639 0.39864,0.49036 0.39864,0.93839 0,0.44097 -0.13405,0.75494 -0.39864,0.93838 -0.26458,0.18344 -0.63852,0.27164 -1.12535,0.27164 l -7.20014,0 c -0.57502,0 -1.00894,-0.13406 -1.31232,-0.40217 -0.29633,-0.27516 -0.4445,-0.71966 -0.4445,-1.35818 l 0,-9.66957" />
      </g>
      <g
         id="g9747">
        <path
           inkscape:connector-curvature="0"
           id="path180"
           style="fill:#565354;fill-opacity:1;fill-rule:nonzero;stroke:none"
           d="m -285.4531,445.74053 2.80809,0 c 0.61736,0 1.12183,-0.16933 1.52046,-0.51505 0.39158,-0.34219 0.59266,-0.79727 0.59266,-1.35466 0,-0.63499 -0.20813,-1.11477 -0.63146,-1.41463 -0.42333,-0.31044 -1.02305,-0.46566 -1.7921,-0.46566 l -2.49765,0 0,3.75 z m -3.0127,-4.30033 c 0,-0.63499 0.14817,-1.0936 0.44802,-1.35818 0.29986,-0.27164 0.7373,-0.4057 1.31233,-0.4057 l 4.6143,0 c 0.6491,0 1.24882,0.0811 1.80268,0.25048 0.55033,0.16227 1.03716,0.4198 1.45343,0.76199 0.41275,0.34219 0.7373,0.77611 0.97013,1.3088 0.23284,0.54327 0.34925,1.16415 0.34925,1.87323 0,1.23119 -0.40569,2.24012 -1.2206,3.01976 -0.81844,0.7761 -1.94379,1.16416 -3.37253,1.16416 l -3.34431,0 0,3.58772 c 0,0.45508 -0.13758,0.81491 -0.40569,1.08655 -0.26458,0.27869 -0.635,0.41274 -1.10419,0.41274 -0.45155,0 -0.81491,-0.13405 -1.09007,-0.41274 -0.27517,-0.27164 -0.41275,-0.63147 -0.41275,-1.08655 l 0,-10.20226" />
        <path
           inkscape:connector-curvature="0"
           id="path184"
           style="fill:#565354;fill-opacity:1;fill-rule:nonzero;stroke:none"
           d="m -260.98462,447.97359 c 0.12347,0.56091 0.32455,1.04774 0.6103,1.47107 0.27517,0.42686 0.66322,0.75141 1.13946,0.99483 0.47625,0.23636 1.0548,0.3563 1.74271,0.3563 0.66322,0 1.22766,-0.11994 1.70391,-0.3563 0.47272,-0.24342 0.85371,-0.56797 1.14299,-1.00541 0.2928,-0.42686 0.508,-0.92074 0.63852,-1.48166 0.127,-0.55385 0.1905,-1.16415 0.1905,-1.82032 0,-1.31585 -0.31044,-2.36712 -0.93485,-3.15733 -0.62441,-0.78669 -1.5381,-1.1818 -2.74107,-1.1818 -1.20296,0 -2.11312,0.39511 -2.73753,1.1818 -0.62089,0.79021 -0.93486,1.84148 -0.93486,3.15733 0,0.66675 0.06,1.28763 0.17992,1.84149 z m -2.75517,-4.54727 c 0.2928,-0.82197 0.72671,-1.5381 1.29468,-2.1484 0.5715,-0.61383 1.27352,-1.09008 2.10254,-1.41463 0.83608,-0.33514 1.78857,-0.49389 2.85042,-0.49389 1.06891,0 2.01435,0.15875 2.8469,0.49389 0.83608,0.32455 1.54515,0.8008 2.1096,1.41463 0.56796,0.6103 0.99835,1.32643 1.29468,2.1484 0.2928,0.81844 0.44097,1.71801 0.44097,2.70578 0,0.95602 -0.14111,1.85207 -0.41628,2.71284 -0.27516,0.84314 -0.69144,1.59808 -1.25588,2.25424 -0.56444,0.65969 -1.26999,1.17827 -2.11665,1.54868 -0.8396,0.38453 -1.80973,0.57502 -2.90334,0.57502 -1.15004,0 -2.15545,-0.17991 -3.00211,-0.53269 -0.85372,-0.3563 -1.54869,-0.84666 -2.09901,-1.48871 -0.54328,-0.64205 -0.94191,-1.38993 -1.19944,-2.24718 -0.26105,-0.85371 -0.38453,-1.79562 -0.38453,-2.8222 0,-0.98777 0.14464,-1.88734 0.43745,-2.70578" />
        <path
           inkscape:connector-curvature="0"
           id="path188"
           style="fill:#565354;fill-opacity:1;fill-rule:nonzero;stroke:none"
           d="m -234.04668,447.97359 c 0.11994,0.56091 0.32455,1.04774 0.59972,1.47107 0.28222,0.42686 0.66674,0.75141 1.14652,0.99483 0.47624,0.23636 1.05832,0.3563 1.74271,0.3563 0.66321,0 1.22765,-0.11994 1.69684,-0.3563 0.47625,-0.24342 0.86078,-0.56797 1.15005,-1.00541 0.29633,-0.42686 0.508,-0.92074 0.63852,-1.48166 0.127,-0.55385 0.1905,-1.16415 0.1905,-1.82032 0,-1.31585 -0.31397,-2.36712 -0.93485,-3.15733 -0.62794,-0.78669 -1.53457,-1.1818 -2.74106,-1.1818 -1.19944,0 -2.11313,0.39511 -2.74107,1.1818 -0.61735,0.79021 -0.93485,1.84148 -0.93485,3.15733 0,0.66675 0.0635,1.28763 0.18697,1.84149 z m -2.7587,-4.54727 c 0.29633,-0.82197 0.72319,-1.5381 1.29821,-2.1484 0.5715,-0.61383 1.26999,-1.09008 2.09901,-1.41463 0.83608,-0.33514 1.78505,-0.49389 2.85043,-0.49389 1.07243,0 2.01434,0.15875 2.84689,0.49389 0.83961,0.32455 1.5381,0.8008 2.10607,1.41463 0.56797,0.6103 1.00541,1.32643 1.29821,2.1484 0.28928,0.81844 0.43744,1.71801 0.43744,2.70578 0,0.95602 -0.13052,1.85207 -0.41274,2.71284 -0.27517,0.84314 -0.69144,1.59808 -1.25941,2.25424 -0.55739,0.65969 -1.26646,1.17827 -2.1096,1.54868 -0.84666,0.38453 -1.81679,0.57502 -2.90686,0.57502 -1.15005,0 -2.15193,-0.17991 -3.00212,-0.53269 -0.85372,-0.3563 -1.55221,-0.84666 -2.09548,-1.48871 -0.54328,-0.64205 -0.94897,-1.38993 -1.20297,-2.24718 -0.26105,-0.85371 -0.38805,-1.79562 -0.38805,-2.8222 0,-0.98777 0.14816,-1.88734 0.44097,-2.70578" />
        <path
           inkscape:connector-curvature="0"
           id="path192"
           style="fill:#565354;fill-opacity:1;fill-rule:nonzero;stroke:none"
           d="m -209.72636,440.94628 c 0,-0.45155 0.14111,-0.82197 0.4198,-1.09713 0.27164,-0.27517 0.635,-0.40569 1.09008,-0.40569 0.46566,0 0.83255,0.13052 1.10066,0.40569 0.27163,0.27516 0.40216,0.64558 0.40216,1.09713 l 0,9.42262 5.0341,0 c 0.45861,0 0.83255,0.11642 1.12535,0.33161 0.29634,0.22225 0.43745,0.53975 0.43745,0.94544 0,0.40216 -0.14111,0.71613 -0.43745,0.9278 -0.2928,0.22578 -0.66674,0.33514 -1.12535,0.33514 l -6.28292,0 c -0.57503,0 -1.00894,-0.13406 -1.3088,-0.40217 -0.30691,-0.26811 -0.45508,-0.72319 -0.45508,-1.35818 l 0,-10.20226" />
        <path
           inkscape:connector-curvature="0"
           id="path196"
           style="fill:#565354;fill-opacity:1;fill-rule:nonzero;stroke:none"
           d="m -179.63464,445.24664 c 0.66322,0.14111 1.2206,0.35278 1.67568,0.62441 0.44803,0.26458 0.80786,0.57503 1.06186,0.90663 0.26105,0.33867 0.44449,0.6985 0.55738,1.0795 0.10583,0.37394 0.1658,0.7761 0.1658,1.18885 0,1.24177 -0.46566,2.24718 -1.40051,3.02328 -0.93133,0.76552 -2.27893,1.15358 -4.04633,1.15358 -0.89958,0 -1.71096,-0.10584 -2.41299,-0.30339 -0.69849,-0.20108 -1.2841,-0.46919 -1.74271,-0.81138 -0.46566,-0.33867 -0.80785,-0.6985 -1.03363,-1.08302 -0.22577,-0.38453 -0.34219,-0.76552 -0.34219,-1.15005 0,-0.36689 0.127,-0.66674 0.36689,-0.89605 0.23636,-0.23636 0.53622,-0.34925 0.90663,-0.34925 0.29986,0 0.55033,0.067 0.74436,0.21872 0.18344,0.14817 0.40569,0.37747 0.6491,0.6985 0.16933,0.2293 0.32455,0.4198 0.46566,0.57502 0.14464,0.15522 0.32809,0.30339 0.53975,0.43039 0.21872,0.13758 0.47272,0.25047 0.77963,0.33513 0.30339,0.0847 0.66675,0.127 1.0795,0.127 0.74788,0 1.34407,-0.16933 1.78151,-0.51505 0.43039,-0.33866 0.65263,-0.74788 0.65263,-1.23118 0,-0.29986 -0.0952,-0.57855 -0.2928,-0.8255 -0.18697,-0.24341 -0.51858,-0.42333 -0.99482,-0.55033 l -3.40076,-0.8643 c -0.6491,-0.1658 -1.19238,-0.38452 -1.62982,-0.64557 -0.43391,-0.254 -0.76552,-0.54328 -1.00188,-0.85725 -0.23283,-0.3175 -0.38805,-0.65263 -0.47625,-0.99482 -0.0847,-0.3422 -0.127,-0.71966 -0.127,-1.12536 0,-0.70555 0.14464,-1.3229 0.44803,-1.83443 0.29986,-0.51858 0.69849,-0.93485 1.20649,-1.2594 0.49741,-0.32456 1.06538,-0.56444 1.68627,-0.71614 0.62441,-0.15522 1.26999,-0.2293 1.9332,-0.2293 0.57503,0 1.17122,0.0741 1.78152,0.2293 0.60677,0.1517 1.17121,0.37042 1.67921,0.65264 0.51505,0.28574 0.91368,0.61382 1.21002,0.99129 0.31044,0.37747 0.45508,0.78669 0.45508,1.21708 0,0.36336 -0.13406,0.65263 -0.40217,0.87135 -0.26811,0.2152 -0.60324,0.3175 -0.97366,0.3175 -0.25752,0 -0.47272,-0.0529 -0.63852,-0.17286 -0.16228,-0.11289 -0.35278,-0.30339 -0.57502,-0.56091 -0.35631,-0.39158 -0.71966,-0.69497 -1.09008,-0.91016 -0.37747,-0.21519 -0.92427,-0.32103 -1.65099,-0.32103 -0.68085,0 -1.21707,0.14464 -1.59807,0.44097 -0.381,0.28222 -0.56797,0.65616 -0.56797,1.12183 0,0.40216 0.17992,0.7126 0.55033,0.90663 0.36689,0.20461 0.8643,0.381 1.50988,0.53269 l 2.51176,0.56444" />
      </g>
      <path
         d="m -213.20825,407.75367 0,-0.004 c 0.0176,0 0.0388,0.004 0.067,0.004 12.18132,0 22.05903,-9.88829 22.05903,-22.06256 0,-12.18838 -9.87771,-22.06608 -22.05903,-22.06608 -0.0282,0 -0.0494,0 -0.067,0 l -27.67168,0 0,0.004 -1.84855,0 0,-0.0318 c -2.97389,0 -5.38334,-2.41298 -5.38334,-5.38335 0,-2.71636 2.00023,-4.94943 4.61429,-5.3269 l 50.7326,0 7.95155,-29.64723 c -1.77093,-0.7761 -3.71472,-1.21001 -5.76082,-1.21001 l -10.60794,0 -3.79939,14.16745 -43.13029,0 c -0.0212,0 -0.0459,0 -0.0635,0 -12.18839,0 -22.06609,9.8777 -22.06609,22.05903 0,12.18838 9.8777,22.06608 22.06609,22.06608 0.0176,0 0.0423,-0.004 0.0635,-0.004 l 0,0.004 27.67521,0 0,-0.004 1.84148,0 0,0.0282 c 2.97037,0 5.38688,2.41298 5.38688,5.38335 0,2.70931 -2.00729,4.94943 -4.6143,5.3269 l -50.73965,0 -11.27117,42.05786 c 1.76741,0.77257 3.71825,1.21002 5.76788,1.21002 l 10.60442,0 7.119,-26.57103 43.13382,0"
         style="fill:#ffffff;fill-opacity:1;fill-rule:nonzero;stroke:none"
         id="path200"
         inkscape:connector-curvature="0" />
      <g
         id="g9754">
        <path
           inkscape:connector-curvature="0"
           id="path222"
           style="fill:url(#linearGradient9734);stroke:none"
           d="m -184.82046,323.24657 -7.94097,29.64017 -50.73612,0 c -2.61054,0.37747 -4.61077,2.61054 -4.61077,5.32691 0,2.97036 2.40592,5.38687 5.37982,5.38687 l 0,0.0282 1.84854,0 0,-0.004 27.67168,0 c 0.0176,0 0.0388,0 0.0635,0 12.18838,0 22.06256,9.8777 22.06256,22.06609 0,12.17427 -9.87418,22.06255 -22.06256,22.06255 -0.0247,0 -0.0459,-0.004 -0.0635,-0.004 l 0,0.004 -43.13382,0 -7.119,26.57103 72.88688,0 c 7.94802,0 14.40028,-6.44873 14.40028,-14.40734 l 0,-83.48777 c 0,-5.8984 -3.56303,-10.96778 -8.64652,-13.18321 z m -33.00212,67.81045 c 2.61054,-0.37747 4.6143,-2.61407 4.6143,-5.32691 0,-2.97037 -2.41298,-5.38335 -5.3904,-5.38335 l 0,-0.0282 -1.83796,0 0,0.004 -27.67168,0 0,-0.004 c -0.0247,0 -0.0459,0.004 -0.067,0.004 -12.18485,0 -22.06609,-9.87771 -22.06609,-22.06609 0,-12.18133 9.88124,-22.05903 22.06609,-22.05903 0.0212,0 0.0423,0 0.067,0 l 43.12676,0 3.79939,-14.16745 -72.88335,0 c -7.95155,0 -14.40028,6.4452 -14.40028,14.40028 l 0,83.48777 c 0,5.90546 3.5595,10.96425 8.64652,13.18674 l 11.26058,-42.04727 50.73612,0" />
      </g>
    </g>
  </g>
</svg>
